# xmcd CD database file
#
# Track frame offsets:
#	150
#	16240
#	34782
#	50119
#	63840
#	80069
#	96800
#	112444
#	126444
#	143286
#
# Disc length: 2094 seconds
#
# Revision: 0
# Processed by: cddbd v1.4PL0 Copyright (c) Steve Scherf et al.
# Submitted via: CDex 1.50Beta7
#
DISCID=8a082c0a
DTITLE=MAZZ - IT'S BAD
DYEAR=1900
DGENRE=Salsa
TTITLE0=ESTA VEZ
TTITLE1=SI VUELVES
TTITLE2=QUE CIEGO FUI
TTITLE3=YA TE OLVIDASTE
TTITLE4=PRIETA LINDA
TTITLE5=ANTES DELAMOR
TTITLE6=QUE MALA FUISTE
TTITLE7=NO TE VOLVERE A QUERER
TTITLE8=BAILANDO CON ELLA
TTITLE9=MENTIRAS
EXTD=
EXTT0=
EXTT1=
EXTT2=
EXTT3=
EXTT4=
EXTT5=
EXTT6=
EXTT7=
EXTT8=
EXTT9=
PLAYORDER=
